<?xml version="1.0" encoding="UTF-8" standalone="no"?><!DOCTYPE svg PUBLIC "-//W3C//DTD SVG 1.1//EN" "http://www.w3.org/Graphics/SVG/1.1/DTD/svg11.dtd"><svg width="100%" height="100%" viewBox="0 0 2134 2134" version="1.1" xmlns="http://www.w3.org/2000/svg" xmlns:xlink="http://www.w3.org/1999/xlink" xml:space="preserve" xmlns:serif="http://www.serif.com/" style="fill-rule:evenodd;clip-rule:evenodd;stroke-linejoin:round;stroke-miterlimit:2;"><circle cx="1066.67" cy="1066.67" r="1066.67" style="fill:#4f46e5;"/><path d="M656.645,1527.45c34.256,1.992 1013.94,-737.836 1013.94,-737.836c0,0 -1098.2,206.482 -1113.01,219.663c-20.856,18.564 64.809,516.181 99.066,518.173Z" style="fill:#9e9e9e;fill-rule:nonzero;"/><path d="M1838.44,484.66c-22.764,-25.676 -1554.98,390.763 -1564.9,423.611c-9.922,32.849 289.654,342.952 315.938,350.891c18.977,5.732 725.782,-366.928 742.342,-356.032c16.561,10.897 -537.933,510.378 -543.665,529.355c-8.073,26.728 325.107,406.139 355.35,389.928c30.244,-16.212 717.696,-1312.08 694.932,-1337.75Z" style="fill:#fff;fill-rule:nonzero;"/></svg>